<svg xmlns="http://www.w3.org/2000/svg" width="128" height="128" viewBox="0 0 128 128"><path fill="#b4fff4" d="M90.4 93.3l-9.3-15.4a69.9 69.9 0 0 0 3.1-19c0-.9-.1-1.7-.1-2.6-1-17.1-7.6-23.2-12.5-28.1a24.3 24.3 0 0 1-5.4-7.2c0-.1-.1-.1-.1-.2a4 4 0 0 0 2.1-.7 2.8 2.8 0 0 0 1.4-2.6l-.3-.6c-.4-.4-1.6-.6-3.5-.7a12.5 12.5 0 0 1 .1-3.3c0-.6 0-.6.9-.7h.1a1.3 1.3 0 0 0 1.1-.7 1.9 1.9 0 0 0-.4-1.8v-.5c-1.3-3.3-2-5.6-2-6.8S65 .3 64.7.1h-.8c-.2.1-.8.4-.8 2.3s-.3 2.7-2 6.9v.4a4 4 0 0 0-.4 1.3.7.7 0 0 0 .1.5 1.2 1.2 0 0 0 1 .7h.2c.8.1.8.1.9.7a14.8 14.8 0 0 1 .1 2 5.7 5.7 0 0 1-.1 1.3c-1.9.1-3.1.3-3.5.7l-.3.6a2.8 2.8 0 0 0 1.4 2.6 4.8 4.8 0 0 0 2.1.7v.2c-1.2 2.9-3.2 4.9-5.6 7.3-4.9 4.9-11.5 11-12.5 28v2.6a69.9 69.9 0 0 0 3 19l-9.6 15.4-5.6 32.6h6.4l5.9-20.7 10-8.4.3.2 1.1.3c.2 1.1.4 2.1.5 2.8s.4 1.8 5 2.1v23.7h5.3v-23.7c4.9-.3 5.1-1.6 5.2-2.1l.5-2.8 1.1-.3h.2l9.9 8.3 5.9 20.7H96z"/></svg>